<mxfile host="app.diagrams.net" modified="2024-05-27T07:23:26.999Z" agent="Mozilla/5.0 (Macintosh; Intel Mac OS X 10_15_7) AppleWebKit/605.1.15 (KHTML, like Gecko) Version/17.5 Safari/605.1.15" version="24.4.8" etag="CHs5Ovs6HtKeCUXHUbGf" type="github">
  <diagram name="Seite-1" id="c4ROCUiDvdRLFXxvr4zi">
    <mxGraphModel>
      <root>
        <mxCell id="0" />
        <mxCell id="1" parent="0" />
      </root>
    </mxGraphModel>
  </diagram>
</mxfile>
